<svg viewBox="0 0 800 500" xmlns="http://www.w3.org/2000/svg">
  <!-- LEFT: Processing Suggestions -->
  <rect x="0" y="0" width="397" height="500" fill="#0C1525"/>
  <rect x="0" y="0" width="397" height="4" fill="#2DD4BF"/>
  <rect x="0" y="4" width="397" height="28" fill="#131F38"/>
  <text x="14" y="23" font-family="Plus Jakarta Sans,system-ui,sans-serif" font-size="11" font-weight="700" fill="rgba(255,255,255,.85)">Splunk</text>
  <text x="57" y="23" font-family="Plus Jakarta Sans,system-ui,sans-serif" font-size="10" fill="rgba(255,255,255,.3)">›</text>
  <text x="65" y="23" font-family="Plus Jakarta Sans,system-ui,sans-serif" font-size="9" fill="rgba(255,255,255,.3)">Data Management</text>
  <rect x="162" y="10" width="46" height="14" rx="3" fill="rgba(255,255,255,.07)"/>
  <text x="185" y="21" text-anchor="middle" font-family="Plus Jakarta Sans,system-ui,sans-serif" font-size="7.5" font-weight="600" fill="rgba(255,255,255,.4)" letter-spacing=".07em">PREVIEW</text>

  <!-- Step sidebar -->
  <rect x="0" y="32" width="38" height="368" fill="#080E1C"/>
  <line x1="19" y1="81" x2="19" y2="241" stroke="#1A2438" stroke-width="1.5"/>
  <circle cx="19" cy="70" r="11" fill="#166534"/>
  <path d="M13.5 70 l4 4 8-8" stroke="white" stroke-width="1.8" stroke-linecap="round" stroke-linejoin="round" fill="none"/>
  <circle cx="19" cy="110" r="11" fill="#166534"/>
  <path d="M13.5 110 l4 4 8-8" stroke="white" stroke-width="1.8" stroke-linecap="round" stroke-linejoin="round" fill="none"/>
  <circle cx="19" cy="150" r="11" fill="#1D4ED8"/>
  <text x="19" y="155" text-anchor="middle" font-family="Plus Jakarta Sans,system-ui,sans-serif" font-size="12" font-weight="700" fill="white">3</text>
  <circle cx="19" cy="192" r="11" fill="#1A2438"/>
  <text x="19" y="197" text-anchor="middle" font-family="Plus Jakarta Sans,system-ui,sans-serif" font-size="11" fill="rgba(255,255,255,.3)">4</text>
  <circle cx="19" cy="232" r="11" fill="#1A2438"/>
  <text x="19" y="237" text-anchor="middle" font-family="Plus Jakarta Sans,system-ui,sans-serif" font-size="11" fill="rgba(255,255,255,.3)">5</text>

  <!-- Section header -->
  <text x="46" y="56" font-family="Plus Jakarta Sans,system-ui,sans-serif" font-size="14" font-weight="700" fill="rgba(255,255,255,.92)">Sample data analysis</text>
  <text x="46" y="70" font-family="Plus Jakarta Sans,system-ui,sans-serif" font-size="9" fill="rgba(255,255,255,.38)">Data analysis generated by AI</text>
  <rect x="46" y="78" width="210" height="22" rx="4" fill="rgba(45,212,191,.1)" stroke="rgba(45,212,191,.35)" stroke-width="1"/>
  <path d="M56,89 l1.2,2.8 2.8,1.2 -2.8,1.2 -1.2,2.8 -1.2,-2.8 -2.8,-1.2 2.8,-1.2z" fill="#2DD4BF"/>
  <text x="65" y="93" font-family="Plus Jakarta Sans,system-ui,sans-serif" font-size="9" fill="#2DD4BF">AI scanned sample data — 3 groups detected</text>

  <!-- Group 1 (checked) -->
  <rect x="46" y="108" width="248" height="62" rx="5" fill="#111E38" stroke="#1E2A44" stroke-width="1"/>
  <rect x="55" y="116" width="13" height="13" rx="2" fill="#2DD4BF"/>
  <path d="M58 122.5 l3 3 6-6" stroke="white" stroke-width="1.5" stroke-linecap="round" stroke-linejoin="round" fill="none"/>
  <text x="74" y="127" font-family="Plus Jakarta Sans,system-ui,sans-serif" font-size="11" font-weight="700" fill="rgba(255,255,255,.9)">Group 1</text>
  <text x="74" y="139" font-family="Plus Jakarta Sans,system-ui,sans-serif" font-size="8" fill="rgba(255,255,255,.38)">175 of 300 events fit into this group</text>
  <rect x="55" y="145" width="232" height="18" rx="3" fill="#060B14"/>
  <text x="61" y="157" font-family="Courier New,Courier,monospace" font-size="7.5" fill="rgba(100,200,130,.6)">2025-07-30 08:01:12 Firebox01 [Allow] src_ip=10.1.2.34</text>

  <!-- Group 2 (checked) -->
  <rect x="46" y="178" width="248" height="62" rx="5" fill="#111E38" stroke="#1E2A44" stroke-width="1"/>
  <rect x="55" y="186" width="13" height="13" rx="2" fill="#2DD4BF"/>
  <path d="M58 192.5 l3 3 6-6" stroke="white" stroke-width="1.5" stroke-linecap="round" stroke-linejoin="round" fill="none"/>
  <text x="74" y="197" font-family="Plus Jakarta Sans,system-ui,sans-serif" font-size="11" font-weight="700" fill="rgba(255,255,255,.9)">Group 2</text>
  <text x="74" y="209" font-family="Plus Jakarta Sans,system-ui,sans-serif" font-size="8" fill="rgba(255,255,255,.38)">85 of 300 events fit into this group</text>
  <rect x="55" y="215" width="232" height="18" rx="3" fill="#060B14"/>
  <text x="61" y="227" font-family="Courier New,Courier,monospace" font-size="7.5" fill="rgba(100,200,130,.6)">2025-07-30 08:01:12 Firebox07 [DENY] src_ip=10.1.2.34</text>

  <!-- Group 3 (unchecked) -->
  <rect x="46" y="248" width="248" height="62" rx="5" fill="#111E38" stroke="#1E2A44" stroke-width="1"/>
  <rect x="55" y="256" width="13" height="13" rx="2" fill="none" stroke="rgba(255,255,255,.22)" stroke-width="1.2"/>
  <text x="74" y="267" font-family="Plus Jakarta Sans,system-ui,sans-serif" font-size="11" font-weight="700" fill="rgba(255,255,255,.9)">Group 3</text>
  <text x="74" y="279" font-family="Plus Jakarta Sans,system-ui,sans-serif" font-size="8" fill="rgba(255,255,255,.38)">40 of 300 events fit into this group</text>
  <rect x="55" y="285" width="232" height="18" rx="3" fill="#060B14"/>
  <text x="61" y="297" font-family="Courier New,Courier,monospace" font-size="7.5" fill="rgba(100,200,130,.6)">2025-07-30 08:01:12 Firebox01 [Allow] src_ip=10.1.2.34</text>

  <!-- Data models panel -->
  <rect x="302" y="108" width="90" height="202" rx="5" fill="#0E1832" stroke="#1A2540" stroke-width="1"/>
  <text x="308" y="122" font-family="Plus Jakarta Sans,system-ui,sans-serif" font-size="9" font-weight="700" fill="rgba(255,255,255,.5)">Data models</text>
  <text x="308" y="136" font-family="Plus Jakarta Sans,system-ui,sans-serif" font-size="7.5" fill="rgba(255,255,255,.3)">Group 1</text>
  <rect x="305" y="141" width="84" height="30" rx="3" fill="rgba(29,78,216,.2)" stroke="rgba(59,130,246,.4)" stroke-width="1"/>
  <circle cx="312" cy="155" r="4.5" fill="none" stroke="#3B82F6" stroke-width="1.3"/>
  <circle cx="312" cy="155" r="2.2" fill="#3B82F6"/>
  <text x="320" y="152" font-family="Plus Jakarta Sans,system-ui,sans-serif" font-size="7" fill="rgba(255,255,255,.82)">Network_Traffic</text>
  <rect x="319" y="158" width="40" height="9" rx="2" fill="rgba(29,78,216,.5)"/>
  <text x="339" y="165.5" text-anchor="middle" font-family="Plus Jakarta Sans,system-ui,sans-serif" font-size="5.5" font-weight="600" fill="#93C5FD">Recommended</text>
  <rect x="305" y="175" width="84" height="22" rx="3" fill="rgba(255,255,255,.03)"/>
  <circle cx="312" cy="186" r="4" fill="none" stroke="rgba(255,255,255,.2)" stroke-width="1.2"/>
  <text x="320" y="190" font-family="Plus Jakarta Sans,system-ui,sans-serif" font-size="7" fill="rgba(255,255,255,.4)">Malware.Oper...</text>
  <rect x="305" y="201" width="84" height="22" rx="3" fill="rgba(255,255,255,.03)"/>
  <circle cx="312" cy="212" r="4" fill="none" stroke="rgba(255,255,255,.2)" stroke-width="1.2"/>
  <text x="320" y="216" font-family="Plus Jakarta Sans,system-ui,sans-serif" font-size="7" fill="rgba(255,255,255,.4)">Malware.Att...</text>
  <rect x="305" y="227" width="84" height="22" rx="3" fill="rgba(255,255,255,.03)"/>
  <circle cx="312" cy="238" r="4" fill="none" stroke="rgba(255,255,255,.2)" stroke-width="1.2"/>
  <text x="320" y="242" font-family="Plus Jakarta Sans,system-ui,sans-serif" font-size="7" fill="rgba(255,255,255,.4)">IDS_Attacks</text>

  <!-- Nav buttons -->
  <rect x="46" y="330" width="64" height="26" rx="5" fill="#1E2A42" stroke="#2A3A5A" stroke-width="1"/>
  <text x="78" y="347" text-anchor="middle" font-family="Plus Jakarta Sans,system-ui,sans-serif" font-size="10" fill="rgba(255,255,255,.65)">Back</text>
  <rect x="120" y="330" width="58" height="26" rx="5" fill="#1D4ED8"/>
  <text x="149" y="347" text-anchor="middle" font-family="Plus Jakarta Sans,system-ui,sans-serif" font-size="10" font-weight="600" fill="white">Next</text>

  <!-- DIVIDER -->
  <rect x="397" y="0" width="6" height="500" fill="#07090E"/>

  <!-- RIGHT: Root Cause Analysis -->
  <rect x="403" y="0" width="397" height="500" fill="#0A0E1E"/>
  <rect x="403" y="0" width="397" height="4" fill="#A78BFA"/>
  <rect x="403" y="4" width="397" height="28" fill="#131F38"/>
  <text x="414" y="23" font-family="Plus Jakarta Sans,system-ui,sans-serif" font-size="11" font-weight="700" fill="rgba(255,255,255,.85)">Splunk</text>
  <text x="457" y="23" font-family="Plus Jakarta Sans,system-ui,sans-serif" font-size="10" fill="rgba(255,255,255,.3)">›</text>
  <text x="465" y="23" font-family="Plus Jakarta Sans,system-ui,sans-serif" font-size="9" fill="rgba(255,255,255,.3)">Data Management</text>

  <!-- Breadcrumb -->
  <text x="413" y="50" font-family="Plus Jakarta Sans,system-ui,sans-serif" font-size="8.5" fill="rgba(255,255,255,.32)">Data Management › Alerts › Missing CIM compliant field...</text>

  <!-- Unresolved badge -->
  <rect x="413" y="58" width="70" height="16" rx="3" fill="#1E2A42" stroke="#2A3A5A" stroke-width="1"/>
  <text x="448" y="70" text-anchor="middle" font-family="Plus Jakarta Sans,system-ui,sans-serif" font-size="8" fill="rgba(255,255,255,.5)">Unresolved</text>

  <!-- Alert title -->
  <text x="413" y="90" font-family="Plus Jakarta Sans,system-ui,sans-serif" font-size="13" font-weight="700" fill="rgba(255,255,255,.93)">Missing CIM compliant field in</text>
  <text x="413" y="106" font-family="Plus Jakarta Sans,system-ui,sans-serif" font-size="12" font-weight="700" fill="rgba(255,255,255,.93)">pan_globalprotect sourcetype</text>
  <text x="413" y="119" font-family="Plus Jakarta Sans,system-ui,sans-serif" font-size="8.5" fill="rgba(255,255,255,.32)">Investigation generated on 4 Aug, 2025 2:10 PM</text>

  <!-- Summary card -->
  <rect x="413" y="128" width="375" height="128" rx="6" fill="rgba(239,68,68,.06)" stroke="#991B1B" stroke-width="1.2"/>
  <path d="M424,146 l1.5,3.5 3.5,1.5 -3.5,1.5 -1.5,3.5 -1.5,-3.5 -3.5,-1.5 3.5,-1.5z" fill="#F87171"/>
  <text x="434" y="150" font-family="Plus Jakarta Sans,system-ui,sans-serif" font-size="12" font-weight="700" fill="#F87171">Summary</text>
  <rect x="427" y="158" width="348" height="8" rx="3" fill="rgba(255,255,255,.12)"/>
  <rect x="427" y="170" width="310" height="8" rx="3" fill="rgba(255,255,255,.09)"/>
  <rect x="427" y="182" width="260" height="8" rx="3" fill="rgba(255,255,255,.07)"/>
  <text x="427" y="206" font-family="Plus Jakarta Sans,system-ui,sans-serif" font-size="8.5" fill="rgba(255,255,255,.38)"># of non-compliant events</text>
  <text x="427" y="248" font-family="Plus Jakarta Sans,system-ui,sans-serif" font-size="34" font-weight="700" fill="rgba(255,255,255,.95)">100K</text>

  <!-- Root cause -->
  <text x="413" y="276" font-family="Plus Jakarta Sans,system-ui,sans-serif" font-size="12" font-weight="700" fill="rgba(255,255,255,.9)">Suspected root cause: schema drift</text>
  <rect x="413" y="284" width="360" height="8" rx="3" fill="rgba(255,255,255,.1)"/>
  <rect x="413" y="296" width="300" height="8" rx="3" fill="rgba(255,255,255,.08)"/>

  <!-- Solutions -->
  <text x="413" y="322" font-family="Plus Jakarta Sans,system-ui,sans-serif" font-size="11" font-weight="700" fill="rgba(255,255,255,.9)">Recommended solutions</text>
  <rect x="413" y="330" width="375" height="32" rx="5" fill="#0D1428" stroke="#252542" stroke-width="1"/>
  <path d="M424,346 l1.5,3.5 3.5,1.5 -3.5,1.5 -1.5,3.5 -1.5,-3.5 -3.5,-1.5 3.5,-1.5z" fill="#A78BFA"/>
  <text x="435" y="350" font-family="Plus Jakarta Sans,system-ui,sans-serif" font-size="10" fill="rgba(167,139,250,.9)">Update extractions for the new log format</text>
  <path d="M779 338 l5 5 -5 5" stroke="rgba(255,255,255,.2)" stroke-width="1.5" stroke-linecap="round" stroke-linejoin="round" fill="none"/>
  <rect x="413" y="368" width="375" height="32" rx="5" fill="#0D1428" stroke="#252542" stroke-width="1"/>
  <path d="M424,384 l1.5,3.5 3.5,1.5 -3.5,1.5 -1.5,3.5 -1.5,-3.5 -3.5,-1.5 3.5,-1.5z" fill="#A78BFA"/>
  <text x="435" y="388" font-family="Plus Jakarta Sans,system-ui,sans-serif" font-size="10" fill="rgba(167,139,250,.9)">Create new sourcetype (pan_globalprotect_v2)</text>
  <path d="M779 376 l5 5 -5 5" stroke="rgba(255,255,255,.2)" stroke-width="1.5" stroke-linecap="round" stroke-linejoin="round" fill="none"/>

  <!-- FOOTER -->
  <rect x="0" y="410" width="800" height="90" fill="#06080F"/>
  <circle cx="100" cy="455" r="5" fill="#2DD4BF"/>
  <text x="113" y="461" font-family="Plus Jakarta Sans,system-ui,sans-serif" font-size="20" font-weight="700" fill="#2DD4BF">Processing Suggestions</text>
  <circle cx="480" cy="455" r="5" fill="#A78BFA"/>
  <text x="493" y="461" font-family="Plus Jakarta Sans,system-ui,sans-serif" font-size="20" font-weight="700" fill="#A78BFA">Root Cause Analysis</text>
</svg>
