<svg xmlns="http://www.w3.org/2000/svg" viewBox="0 0 1024 752">
<style>
path { fill: #2A3B47; }
#person { animation: p-bob .85s ease-in-out infinite; }
#dog    { animation: dog-bob .85s ease-in-out infinite .18s; }
@keyframes p-bob {
  0%,50%,100% { transform: translateY(0) rotate(0deg); }
  25%         { transform: translateY(-8px) rotate(.6deg); }
  75%         { transform: translateY(-5px) rotate(-.5deg); }
}
@keyframes dog-bob {
  0%,50%,100% { transform: translateY(0) rotate(0deg); }
  25%         { transform: translateY(-6px) rotate(-.5deg); }
  75%         { transform: translateY(-8px) rotate(.4deg); }
}
@media (prefers-reduced-motion: reduce) {
  #person, #dog { animation: none; }
}
</style>
<g id="person">
  <path d="
M338.999817,199.012466 
	C338.999817,199.012466 339.025085,199.050339 338.863220,198.353577 
	C338.505798,197.608765 338.302246,196.719208 337.762695,196.145782 
	C336.015106,194.288437 333.973450,192.397614 331.265564,193.657455 
	C328.640228,194.878891 329.137512,197.598953 329.499908,199.875229 
	C330.050140,203.331024 330.976349,206.706573 332.489532,209.896851 
	C335.383026,215.997284 337.364380,217.169632 343.738251,216.377548 
	C344.580505,219.024506 344.430634,221.921600 345.769409,224.500992 
	C352.786255,238.020081 363.019135,246.418045 379.056427,245.950027 
	C382.581482,245.847183 386.045013,245.921967 389.034088,243.577560 
	C390.762848,242.221664 392.624542,242.015610 394.557220,243.392670 
	C397.928406,245.794693 400.216614,244.184464 401.798279,241.111023 
	C403.700867,237.414017 405.740936,233.726639 407.083038,229.815979 
	C409.366058,223.163696 411.278870,216.362885 411.396851,208.762604 
	C407.064545,209.468277 403.348236,208.967911 398.907257,208.307556 
	C401.951416,212.755722 400.745758,216.330444 398.016144,219.570770 
	C407.709534,225.034561 408.106262,225.579086 405.396027,229.412567 
	C403.597839,228.607483 401.799652,227.802399 399.462616,226.567215 
	C396.639282,225.213089 393.072754,224.903381 392.992188,220.327026 
	C392.963165,218.678665 390.845612,217.998444 388.324280,218.837601 
	C386.153656,217.416245 386.331116,216.130829 388.824310,215.722946 
	C390.196075,215.498520 391.706543,216.267914 393.172028,216.438889 
	C395.986633,216.767288 398.631439,215.174469 397.453064,212.708176 
	C394.972046,207.515594 394.605042,201.629471 391.848358,196.210739 
	C389.442932,198.074417 389.455841,200.595505 388.576080,202.622574 
	C387.778381,204.460556 387.310822,206.592728 385.504913,207.612335 
	C379.322113,211.103104 372.672394,210.469345 366.132507,209.102524 
	C361.268372,208.085922 360.845886,203.563049 360.038788,199.731323 
	C359.372498,196.568268 357.811462,195.100266 354.586456,195.286575 
	C352.765594,195.391769 350.934418,195.313629 349.107941,195.326935 
	C346.780304,195.343887 345.118988,195.970398 345.809235,198.846649 
	C346.102295,200.067749 345.887848,201.220627 344.711243,201.875092 
	C343.327881,202.644577 342.140045,201.968658 341.095062,201.072372 
	C340.341949,200.426437 339.674744,199.680328 338.999817,199.012466 
M379.015411,531.519714 
	C387.554596,541.791687 390.578125,554.671326 395.402191,566.658142 
	C404.165039,588.432007 412.850647,610.231995 422.345947,631.702026 
	C423.555115,634.436096 424.905121,636.232910 428.259735,635.582031 
	C436.234711,634.034729 443.546875,631.075012 450.015930,626.069763 
	C452.316711,624.289490 452.939331,622.455688 451.893677,619.604431 
	C450.234039,615.079041 449.020996,610.389832 447.622650,605.768799 
	C440.006592,580.599915 433.088928,555.192017 424.578339,530.329346 
	C416.217621,505.904388 404.197205,482.949310 393.113464,459.648865 
	C391.326050,455.891388 389.596466,452.104828 387.928101,448.293243 
	C387.454132,447.210449 387.277496,445.915100 388.659424,445.263916 
	C390.021332,444.622101 390.870636,445.552307 391.494904,446.589081 
	C392.093597,447.583405 392.571777,448.652588 393.071625,449.703735 
	C396.391846,456.685699 399.703644,463.671692 403.684235,472.059906 
	C406.445648,458.015015 410.590088,445.825623 410.665192,432.261688 
	C380.487610,438.479218 351.265503,436.549896 322.396210,431.804596 
	C320.950775,433.864380 321.359772,435.559570 321.543671,437.173767 
	C322.933746,449.373108 327.557587,460.271942 334.799347,470.136749 
	C349.580566,490.271820 364.485443,510.318542 379.015411,531.519714 
M279.477234,607.997314 
	C283.550720,613.001770 288.744537,616.533264 294.365692,619.575928 
	C297.493042,621.268799 299.772217,620.843994 302.287628,618.226318 
	C316.600555,603.331421 331.294006,588.795654 345.388306,573.699158 
	C356.013550,562.318359 367.890991,551.769531 373.344452,536.401367 
	C374.284973,533.750854 374.347473,531.836060 372.674438,529.537903 
	C364.341217,518.090942 356.164154,506.530457 347.854858,495.065948 
	C346.141968,492.702606 344.814331,489.972687 341.726929,487.647034 
	C340.140503,495.999756 338.694366,503.782379 337.178101,511.551300 
	C335.566772,519.807556 334.854553,528.083374 328.807556,535.116638 
	C312.088898,554.562317 295.945251,574.502747 279.593323,594.263306 
	C274.391632,600.549255 274.418945,600.571838 279.477234,607.997314 
M349.638062,190.501892 
	C358.510406,189.889847 367.120941,187.122299 376.753632,187.896622 
	C371.859406,183.435333 366.566803,187.794540 361.989105,185.841705 
	C364.178314,180.574554 367.599426,178.686127 372.673828,180.059967 
	C375.877319,180.927277 378.952545,182.267288 382.087677,183.388641 
	C384.173798,184.134781 386.001434,184.875122 386.220428,187.686508 
	C386.428467,190.357285 389.212830,189.931137 390.940460,190.447876 
	C392.740143,190.986160 395.586060,190.268021 395.815796,188.866440 
	C396.938416,182.017426 402.902771,181.736099 407.487152,179.739807 
	C409.543945,178.844131 409.835419,177.598007 409.632446,175.869354 
	C408.761841,168.454834 406.352661,161.618561 401.752380,155.657883 
	C400.587128,154.148026 399.323944,153.010300 397.097870,154.020538 
	C388.864380,157.757095 380.503967,156.605240 372.174103,154.373734 
	C368.934357,153.505844 365.691620,152.872360 362.324432,153.040390 
	C353.262543,153.492599 347.920288,160.098328 350.745087,168.649918 
	C352.712341,174.605484 352.123779,179.278503 348.116669,183.873077 
	C347.178894,184.948395 346.691315,186.490906 346.236084,187.896057 
	C345.448364,190.327576 346.862000,190.811508 349.638062,190.501892 
M361.708160,149.712311 
	C367.311127,149.308441 372.486603,151.557144 377.897217,152.301468 
	C384.019867,153.143738 390.241241,154.050659 395.940216,150.846039 
	C395.656982,148.982391 394.718323,148.515625 393.886719,148.009781 
	C378.637756,138.734604 363.034058,138.106445 347.565887,147.034988 
	C334.706696,154.457565 328.029968,171.326309 331.516327,185.549179 
	C332.475220,189.461197 335.788269,190.676880 338.930603,191.230377 
	C341.905334,191.754318 342.158295,188.686646 343.001312,186.513550 
	C343.833374,184.368607 344.986420,182.270294 346.375519,180.437103 
	C348.595612,177.507324 348.921051,174.693497 347.749481,171.142044 
	C344.037354,159.889374 349.091095,151.827332 361.708160,149.712311 
M289.367615,652.371826 
	C296.203247,654.551636 303.155334,654.567932 311.261200,654.148010 
	C305.780792,644.887390 297.291809,643.018188 288.831787,641.503906 
	C290.002472,637.834351 293.361389,639.627747 294.849304,637.809998 
	C292.631042,634.772583 288.326538,638.065613 286.295166,634.650085 
	C287.399200,631.256775 290.638977,632.772949 293.312347,632.018311 
	C291.682343,630.612549 290.233215,630.508179 288.766205,630.304382 
	C287.100250,630.073120 284.391479,630.620361 284.749054,627.928833 
	C285.071930,625.498596 287.496796,626.196777 289.283966,626.419250 
	C290.422455,626.560974 291.713135,626.986145 292.353912,625.598206 
	C293.054901,624.079834 292.194733,622.958069 290.946350,622.302856 
	C283.926880,618.618896 277.943054,613.751221 273.709503,606.925903 
	C270.053589,608.485901 267.498016,610.882507 264.649017,612.850647 
	C261.523285,615.009888 261.199921,617.238770 263.387756,620.284363 
	C269.496429,628.787842 275.417480,637.426575 281.562592,645.903137 
	C283.408569,648.449463 285.699310,650.694702 289.367615,652.371826 
M431.074493,639.561829 
	C429.453491,644.097229 432.535858,647.775085 433.328522,651.869812 
	C433.987732,655.275146 435.837982,655.837158 439.131561,654.886536 
	C452.265808,651.095398 465.033112,646.345825 477.193573,640.146851 
	C482.359222,637.513611 487.723053,634.902405 492.382507,630.522949 
	C487.362366,626.972778 482.455292,629.197021 477.874939,628.634277 
	C471.594177,627.862671 472.238495,635.610535 467.887787,636.619568 
	C465.725616,634.356506 468.349182,632.137390 466.814056,629.797668 
	C466.266571,630.557007 465.969299,630.945740 465.696930,631.351074 
	C464.385895,633.302307 464.532745,637.323792 461.562317,636.806030 
	C457.744141,636.140442 461.929626,632.583191 460.377655,630.394714 
	C458.140594,631.539612 458.014526,633.892090 457.095795,635.714661 
	C456.556244,636.784973 455.963806,637.979675 454.551300,637.569031 
	C452.949280,637.103333 452.901184,635.775696 453.194794,634.313904 
	C453.502930,632.779419 454.926331,631.381836 453.356995,628.684448 
	C447.076508,634.230835 439.461700,636.853394 431.074493,639.561829 
M291.407440,439.240051 
	C289.239929,433.493134 285.837372,430.155151 279.053986,432.118805 
	C277.082336,432.689514 274.689026,432.382935 272.621124,431.905823 
	C269.539062,431.194824 268.392029,432.534882 267.746735,435.227051 
	C266.260651,441.426849 265.734009,447.690155 266.175903,454.040894 
	C266.191162,454.260712 266.401855,454.466919 266.545715,454.722534 
	C267.230377,453.444305 266.120728,451.553528 268.836456,450.487610 
	C273.032928,453.705688 270.081329,460.098938 273.908508,464.203979 
	C273.301788,459.683960 271.488739,455.717468 274.056152,450.711548 
	C278.960907,456.287598 275.957550,464.173981 281.122253,469.149811 
	C278.436951,454.427643 278.436951,454.427643 281.264313,451.925140 
	C284.607147,457.335632 282.748871,464.514618 287.595642,470.145569 
	C287.245117,461.283875 283.075104,453.100494 287.680237,445.021912 
	C291.497925,446.458801 291.203674,450.327301 293.816864,452.381348 
	C294.041504,447.850983 293.187958,443.848907 291.407440,439.240051 
M365.014679,253.328568 
	C370.976837,254.201996 374.541046,257.509216 375.612335,263.524933 
	C375.870331,264.973602 376.597748,266.345642 377.164948,267.730133 
	C377.649353,268.912537 378.539062,269.718536 379.862579,269.501953 
	C382.741394,269.030792 385.949097,268.339722 385.645355,264.633789 
	C385.359924,261.150665 388.366882,256.125427 382.243530,254.705704 
	C371.837585,252.293045 362.665802,247.363373 353.973236,241.360153 
	C353.088226,240.748962 352.355957,239.551636 350.963318,240.147202 
	C349.472321,247.858414 349.573059,248.101654 356.643677,250.677368 
	C359.142242,251.587540 361.717438,252.287262 365.014679,253.328568 
M496.220032,408.526611 
	C500.003815,406.655182 503.102081,407.462372 505.935822,410.589783 
	C507.088654,411.862061 508.611481,413.180511 510.823578,413.311035 
	C507.212921,404.566284 501.293579,399.377045 492.179718,398.260651 
	C491.074005,398.125183 489.763489,397.254395 488.891510,398.368195 
	C485.933289,402.146912 483.095612,406.020905 480.254883,409.890076 
	C479.723999,410.613159 479.838165,411.514099 480.294983,412.252472 
	C482.000336,415.008850 483.203583,418.142426 486.059082,420.466553 
	C487.256165,418.954590 488.302673,417.713684 489.256561,416.405273 
	C490.210571,415.096680 492.073761,414.626434 492.565613,412.848389 
	C490.836212,411.513214 486.967773,411.531769 487.979858,408.633972 
	C489.086151,405.466400 491.921112,408.297394 493.997589,408.386963 
	C494.492523,408.408295 494.984406,408.500641 496.220032,408.526611 
M363.631287,200.663437 
	C364.254242,204.041397 366.275238,205.614899 369.689667,206.198532 
	C373.559570,206.860031 377.306335,206.504623 381.039825,205.784286 
	C384.400787,205.135834 386.987762,200.322144 386.665039,195.778519 
	C386.364441,191.546280 383.012054,191.588669 380.096863,191.360306 
	C377.131561,191.128052 374.131226,191.160187 371.155029,191.285324 
	C363.632660,191.601608 363.066162,192.284576 363.631287,200.663437 
M269.189911,640.341797 
	C272.244812,644.289917 275.273712,648.258484 278.360229,652.181763 
	C284.165497,659.560730 300.546631,663.174500 309.985718,658.218262 
	C305.247833,658.218262 301.791656,658.265259 298.337158,658.209106 
	C289.389343,658.063721 282.316650,654.408386 277.180115,646.988586 
	C272.160278,639.737366 267.020691,632.569092 261.932526,625.365173 
	C260.699860,623.619934 259.462585,621.877991 258.227417,620.134521 
	C259.479279,628.108459 264.471497,633.741577 269.189911,640.341797 
M470.351410,647.993164 
	C459.784271,652.776978 448.618622,656.038574 437.789368,660.155762 
	C446.525146,662.862000 488.578094,643.813477 494.625610,634.503113 
	C486.658600,639.871033 478.937531,643.938416 470.351410,647.993164 
M483.379852,460.733246 
	C484.460815,463.468384 484.237793,468.415527 488.051422,467.621368 
	C491.903961,466.819153 490.575958,462.257599 490.172760,459.034546 
	C490.152344,458.871399 490.099365,458.712250 490.060913,458.551392 
	C488.464478,451.869934 486.868011,445.188477 484.999878,437.370056 
	C482.695587,445.524231 483.174957,452.711243 483.379852,460.733246 
M404.766663,205.665085 
	C406.682678,205.476791 408.705597,206.107193 410.611053,204.972000 
	C409.136841,203.884903 408.604218,203.120468 410.313995,201.609940 
	C411.330139,200.712234 411.004059,198.768265 409.823608,197.574844 
	C409.257660,197.002686 408.305084,196.416061 407.629272,197.145370 
	C404.039215,201.019714 401.222961,196.677902 397.239105,196.880386 
	C400.626007,190.474640 405.804138,192.790573 410.237183,192.420029 
	C406.531586,190.413895 402.784485,190.659317 399.138641,192.223587 
	C396.842560,193.208710 396.924927,195.561066 397.499084,197.426743 
	C398.573578,200.918304 398.819244,205.285675 404.766663,205.665085 
M502.223358,418.572144 
	C501.313293,417.918823 500.665253,416.675964 498.606110,416.890472 
	C501.320465,420.299622 502.867432,423.986847 507.849854,425.014038 
	C506.616638,421.923370 504.433289,420.653656 502.223358,418.572144 
M495.758057,423.898926 
	C497.428528,425.681488 498.488312,428.314972 502.446716,428.437836 
	C499.466522,425.125397 497.046234,422.435272 494.625916,419.745148 
	C494.387634,419.936523 494.149384,420.127869 493.911133,420.319244 
	C494.407135,421.333191 494.903168,422.347107 495.758057,423.898926 
M380.282471,273.828125 
	C380.300537,276.045319 381.211182,277.724243 383.137756,279.162872 
	C383.925323,277.089264 384.938202,275.522308 384.408844,273.553833 
	C383.197693,272.628632 381.924866,273.189758 380.282471,273.828125 
M414.161469,193.628510 
	C414.260773,195.975952 413.964142,198.388321 415.085358,201.319046 
	C416.271912,198.416443 416.941803,196.212112 416.471161,193.874908 
	C416.244110,192.747223 415.754883,191.430450 414.161469,193.628510 
z"/>
  <path d="
M211.768814,649.466431 
	C215.780792,644.603882 218.378265,639.887146 218.849869,633.509460 
	C219.213074,628.597534 224.542313,626.124268 229.964478,626.490906 
	C235.364151,626.856079 240.158997,630.489746 241.162781,634.961060 
	C241.387146,635.960510 241.624756,637.047668 240.647903,637.689331 
	C239.375946,638.524780 238.443527,637.706360 237.757263,636.669983 
	C236.386673,634.600098 235.231079,632.410278 232.763443,631.289917 
	C229.308258,629.721191 226.163300,630.149048 223.644073,632.851990 
	C221.308990,635.357361 221.642929,638.301819 223.255402,641.173279 
	C223.888336,642.300354 225.149567,643.118225 225.004974,644.639160 
	C224.480530,646.265259 223.078339,646.218445 221.758408,646.357605 
	C218.003082,646.753418 215.190994,648.438721 215.542419,652.579651 
	C215.886124,656.629639 219.154648,657.780090 222.665405,658.255676 
	C224.505981,658.505127 227.779617,656.346741 227.700012,659.869141 
	C227.633530,662.811523 224.219421,662.292297 222.006790,662.244080 
	C215.149277,662.094482 211.612350,657.768372 211.768814,649.466431 
z"/><path d="
M394.683533,651.064209 
	C391.786682,651.663086 389.182129,652.282898 389.349030,655.605530 
	C389.523193,659.073792 392.190430,659.688904 395.008179,659.943848 
	C396.649048,660.092346 398.846283,660.041809 398.438477,662.416321 
	C398.094788,664.417725 395.969391,664.351990 394.303101,664.252991 
	C390.534241,664.028992 387.596039,662.342407 385.956482,658.866394 
	C384.375793,655.515259 384.742401,652.211060 387.509888,649.726685 
	C389.529724,647.913513 389.705261,645.885071 389.725159,643.490417 
	C389.756714,639.691589 391.406677,636.600098 395.039337,635.226501 
	C398.721283,633.834290 402.299316,634.716553 405.332092,637.177979 
	C406.922821,638.469055 408.073547,640.131287 406.484497,642.242249 
	C404.349792,642.666626 403.525299,640.883972 402.256958,639.941040 
	C399.813324,638.124451 397.384827,637.792419 395.072144,640.043640 
	C392.866577,642.190613 393.143188,644.417236 395.078735,646.643555 
	C396.304352,648.053345 397.761230,649.554382 394.683533,651.064209 
z"/><path d="
M293.839508,512.728271 
	C300.132660,513.148438 305.905212,510.358856 312.024384,512.012329 
	C308.940063,517.293579 276.883301,518.935242 271.646118,513.922363 
	C279.099854,511.555603 286.347687,513.539917 293.839508,512.728271 
z"/><path d="
M247.773041,353.153442 
	C250.636963,341.017365 251.899811,338.664703 256.971252,337.632477 
	C252.512680,347.902527 250.684525,358.248627 250.146622,369.603333 
	C246.491608,366.365021 246.491608,366.365021 247.773041,353.153442 
z"/><path d="
M299.775726,521.913696 
	C302.301300,522.310547 305.942047,520.493164 306.025391,523.622192 
	C306.109955,526.796387 302.315613,525.999268 300.022095,526.150757 
	C297.051392,526.346924 294.052155,526.268494 291.073486,526.130432 
	C289.220367,526.044434 286.231018,526.721741 286.245087,524.092163 
	C286.261627,520.993164 289.419556,522.078674 291.357697,521.958862 
	C294.000244,521.795410 296.660858,521.924133 299.775726,521.913696 
z"/><path d="
M240.353912,654.669800 
	C238.358368,653.026001 233.999969,652.882996 235.671432,649.854553 
	C237.137390,647.198608 240.053848,650.010254 242.109955,650.998230 
	C245.671387,652.709473 249.101700,654.695679 252.570984,656.595825 
	C253.947693,657.349854 255.246490,658.349792 254.184998,660.082886 
	C253.264267,661.585938 251.862366,660.882690 250.682999,660.256531 
	C247.335159,658.479126 244.010788,656.657532 240.353912,654.669800 
z"/><path d="
M556.895203,633.691650 
	C559.129028,633.495667 559.873047,635.520081 561.537170,635.959839 
	C563.825256,635.363708 563.394287,630.181030 566.729980,632.139343 
	C569.204468,633.592163 566.675537,636.110229 565.904236,637.855652 
	C565.042236,639.806152 566.490845,643.599182 562.458008,643.357361 
	C560.251709,643.225037 556.242188,636.307922 556.895203,633.691650 
z"/><path d="
M210.079071,636.684692 
	C206.921158,635.784424 206.291641,632.836670 204.449463,631.006409 
	C203.552017,630.114746 202.585129,628.801453 203.779251,627.524231 
	C205.034348,626.181824 206.140579,627.262268 207.176010,628.119324 
	C207.659164,628.519287 208.197983,628.851929 209.145508,629.521912 
	C209.438614,628.995850 209.631653,628.539551 209.918976,628.153381 
	C210.960022,626.753967 211.857941,624.358765 213.974762,625.522217 
	C216.377548,626.842896 214.230362,628.724243 213.578354,630.191040 
	C212.608414,632.372864 212.997711,635.242065 210.079071,636.684692 
z"/><path d="
M406.963745,658.217041 
	C405.182922,657.185974 402.558807,656.725037 403.877167,654.352112 
	C404.928436,652.459961 406.818451,653.991821 408.271484,654.577820 
	C410.870453,655.626099 413.479248,656.662415 416.014130,657.852417 
	C417.607544,658.600525 419.848145,659.479248 418.769043,661.713562 
	C417.785828,663.749329 415.863831,662.401123 414.435699,661.775696 
	C412.020355,660.717896 409.671936,659.507385 406.963745,658.217041 
z"/><path d="
M251.483948,644.517883 
	C252.798996,647.771851 256.403046,649.974243 254.681717,653.983337 
	C250.177582,651.992676 246.822296,646.441284 247.326843,642.113342 
	C249.380417,641.423889 250.273804,642.927856 251.483948,644.517883 
z"/><path d="
M417.548279,650.480713 
	C418.342438,651.573669 418.966675,652.348389 419.462433,653.198059 
	C420.092133,654.277344 420.341736,655.442383 418.999634,656.171082 
	C418.014313,656.706055 417.055634,656.327698 416.349945,655.506470 
	C414.846588,653.756958 413.344116,652.003906 411.916351,650.193115 
	C410.964935,648.986511 410.087860,647.548035 411.781647,646.358765 
	C413.195862,645.365784 414.232849,646.525330 415.123840,647.521667 
	C415.892181,648.380981 416.591492,649.301941 417.548279,650.480713 
z"/><path d="
M242.268188,350.339722 
	C241.461594,352.804840 242.080795,355.396790 239.991257,357.043182 
	C237.499680,354.594330 237.845917,346.691681 240.340363,345.130585 
	C241.106567,344.651093 241.972794,344.504944 242.600052,345.240051 
	C243.969391,346.844788 242.531876,348.375946 242.268188,350.339722 
z"/><path d="
M388.688934,219.158386 
	C390.612610,219.484467 392.329529,220.004196 392.007202,222.192902 
	C391.764954,223.837875 390.421417,224.619507 388.956757,225.092850 
	C387.420807,225.589203 385.734192,225.699463 384.088165,227.247147 
	C389.369965,229.472290 394.306763,229.651047 399.655518,227.168945 
	C401.931427,229.892975 400.032532,230.875397 397.682556,231.457413 
	C391.151398,233.075043 384.870087,232.696289 379.335144,228.830536 
	C377.443909,229.045898 377.449188,231.415222 375.679749,231.437408 
	C373.272522,227.959564 374.125366,224.611664 378.072052,222.986191 
	C381.438751,221.599564 384.939880,220.539474 388.688934,219.158386 
z"/><path d="
M338.984528,198.995682 
	C340.338654,203.190201 339.979584,207.487396 339.936584,212.220108 
	C335.766510,210.936844 335.122955,208.141968 335.535248,204.857437 
	C335.895416,201.987930 335.609253,199.510117 332.467163,198.410736 
	C331.228516,197.977341 330.180298,197.423767 330.851318,195.998230 
	C331.571045,194.469269 332.977051,194.752792 334.288727,195.231323 
	C336.073303,195.882385 337.213654,197.329590 338.745544,198.843536 
	C339.025085,199.050339 338.999817,199.012466 338.984528,198.995682 
z"/><path d="
M395.355469,238.345184 
	C390.816895,241.073380 388.358063,239.839783 386.929565,234.438126 
	C389.233978,233.112518 391.767914,233.823074 394.149078,233.882706 
	C397.685272,233.971268 397.421783,235.851517 395.355469,238.345184 
z"/><path d="
M353.723328,212.576248 
	C357.120117,215.616318 361.752563,217.146347 362.561188,222.272980 
	C358.256989,220.386093 354.685150,217.619110 352.138824,213.651352 
	C351.824982,213.162292 352.647888,212.549957 353.723328,212.576248 
z"/><path d="
M385.179657,216.141785 
	C385.184143,217.412415 385.861969,218.586716 384.614716,219.109329 
	C383.466644,219.590393 382.648041,218.681763 382.250519,217.823486 
	C381.222382,215.603760 380.722107,213.381592 383.612854,212.068634 
	C385.829712,212.699844 384.975647,214.451935 385.179657,216.141785 
z"/><path d="
M369.520874,193.964966 
	C376.975952,191.554260 379.834381,192.257080 383.455780,197.493729 
	C379.429413,197.899811 375.765381,202.087463 371.842834,196.982376 
	C371.093964,196.007706 368.743713,198.880646 366.957031,197.286270 
	C366.142822,195.058319 367.953735,194.796906 369.520874,193.964966 
z"/>
</g>
<g id="dog">
  <path d="
M775.853638,600.803711 
	C773.543091,603.841431 772.897278,607.500977 769.337646,609.769409 
	C777.577576,612.060547 784.315125,615.434570 789.754761,621.384827 
	C792.496643,624.384216 792.902771,628.244507 794.731384,631.554626 
	C797.165344,635.960571 797.871521,641.430603 797.673523,646.509888 
	C797.392029,653.728821 789.202576,657.511108 782.669006,653.851013 
	C779.068237,651.833923 776.015259,648.892395 774.817993,645.069885 
	C772.806641,638.648376 767.251404,637.845947 762.293823,636.775085 
	C759.671692,636.208740 756.892517,635.855652 754.173401,635.365112 
	C751.590332,634.898987 748.947693,634.638000 746.224487,633.813171 
	C741.951965,638.073914 741.894165,644.369934 738.813965,649.186829 
	C737.684143,650.953613 739.009521,652.547241 740.115112,654.125671 
	C743.447388,658.883301 742.179993,663.521301 736.638611,665.038269 
	C725.783936,668.009521 715.226929,666.915588 712.234314,652.483032 
	C711.453857,648.719055 713.047607,645.187988 713.702942,641.896301 
	C714.531555,637.734619 715.104736,633.172424 717.129028,629.153748 
	C719.432556,624.580994 718.594482,622.466980 713.587585,621.848267 
	C709.747620,621.373840 706.211243,620.916260 702.738220,618.878723 
	C700.380432,617.495483 697.785828,618.053528 696.326050,621.373840 
	C694.218750,626.167175 692.715454,631.389343 688.383423,634.928589 
	C687.186462,635.906494 687.015198,637.435364 687.871033,638.556519 
	C690.594788,642.124390 691.512695,647.048584 696.423096,649.018433 
	C700.094543,650.491272 702.290588,653.651306 701.838684,657.717346 
	C701.412048,661.555908 698.329285,663.111450 694.887634,663.952332 
	C685.278992,666.300110 677.164795,662.595398 671.230591,654.583679 
	C667.311157,649.292114 662.849915,644.517822 660.259521,638.276123 
	C659.406067,636.219666 659.140808,633.829407 657.580383,631.596008 
	C651.769653,636.474365 645.196472,639.066833 638.045654,640.571167 
	C634.919739,641.228699 631.345642,651.229187 632.683899,654.361267 
	C635.939636,661.981018 633.147827,666.565491 624.869629,667.193237 
	C616.515808,667.826782 612.041992,663.293945 609.243347,655.407288 
	C606.486267,647.637817 609.061951,641.616821 612.036499,635.140137 
	C613.249695,632.498657 613.461487,629.551697 614.490967,626.758667 
	C617.115417,619.638245 624.548096,617.994202 628.505432,612.625854 
	C629.495605,611.282776 631.234253,610.143555 630.769470,608.463928 
	C629.428101,603.616882 630.806213,598.738953 630.224487,593.796875 
	C629.442810,587.156189 630.788757,580.102356 635.443909,573.848694 
	C630.734436,571.730713 625.879700,570.620361 621.390564,568.938965 
	C615.047363,566.563110 612.311951,561.252197 609.041748,556.758667 
	C604.240845,550.161743 604.588989,541.912048 605.794922,533.987610 
	C606.330078,530.471191 614.113220,522.536438 617.515686,521.852417 
	C622.436768,520.863159 626.173462,524.671021 626.812195,530.466919 
	C627.449585,536.251160 628.002808,542.048950 630.862915,547.458923 
	C634.529602,554.394348 641.425415,554.732422 647.605469,556.667603 
	C648.137939,556.834351 649.150269,556.582092 649.463013,556.166077 
	C652.867493,551.637817 658.729797,552.332947 663.102112,549.705261 
	C666.864258,547.444275 671.761230,548.569458 676.100281,548.002502 
	C684.894043,546.853516 693.884766,545.468323 702.858948,547.493591 
	C705.612610,548.114929 706.126465,546.051758 705.203552,544.121033 
	C704.623657,542.907776 703.151917,541.952881 701.874023,541.265442 
	C647.452942,511.986847 596.095581,478.019012 547.166687,440.324829 
	C537.938477,433.215515 528.677185,426.149109 519.174988,418.866577 
	C516.621155,424.635254 511.604034,427.536896 506.192322,430.008667 
	C500.961426,432.397949 496.030151,436.468689 489.636505,432.472687 
	C488.477997,435.877960 489.676422,439.007080 490.426727,442.162292 
	C492.154724,449.428925 494.829163,456.538391 494.296204,464.189209 
	C494.044617,467.800934 493.361816,471.429535 489.044159,472.225708 
	C484.568481,473.050995 482.104675,470.089569 480.899628,466.423676 
	C478.905457,460.357391 478.565765,454.027496 479.157257,447.664368 
	C479.760590,441.173981 481.087860,434.849030 483.120483,428.641754 
	C484.604462,424.110077 478.546265,415.341705 473.758820,414.826782 
	C471.690552,414.604309 470.000671,413.538208 468.270599,412.550262 
	C453.330597,404.019165 439.417450,393.998138 425.914246,383.378571 
	C424.397583,382.185760 423.027130,380.666870 420.627472,380.375763 
	C420.109467,385.782745 420.238037,391.058899 420.708313,396.327148 
	C421.585602,406.154602 421.232483,415.957214 420.210602,425.746704 
	C420.110687,426.703705 419.894379,428.060455 419.245514,428.481110 
	C415.143463,431.140625 415.224243,435.485931 414.640442,439.493347 
	C412.909485,451.375580 409.930023,462.988586 407.248535,474.666138 
	C406.796173,476.636078 406.390289,478.435516 407.441437,480.436371 
	C424.752655,513.388306 435.202057,548.840515 445.381805,584.406677 
	C449.267487,597.982483 453.943817,611.330383 457.302979,625.369934 
	C465.880280,626.735229 474.427979,624.958435 483.001038,624.295227 
	C490.400208,623.722839 495.095398,625.930420 497.690186,631.294800 
	C499.177155,634.368896 498.904449,637.010437 496.475800,639.495972 
	C493.286438,642.760071 489.480560,645.177917 485.550262,647.343628 
	C472.238190,654.679077 458.364685,660.711304 443.689636,664.800110 
	C436.248169,666.873474 434.199280,665.877930 431.567413,658.744324 
	C430.299927,655.308899 429.147919,651.830750 427.958221,648.366943 
	C426.706329,644.721863 426.481262,640.623901 421.780518,638.934448 
	C420.355011,638.422058 419.540802,635.760986 418.768158,633.947144 
	C407.214661,606.825500 395.731567,579.674622 385.453583,552.033325 
	C383.612793,547.082703 382.032379,541.968506 378.327667,538.161499 
	C376.974884,538.098633 376.570068,538.911743 376.315216,539.667725 
	C372.290588,551.607056 363.711914,560.347046 355.340210,569.145020 
	C338.457031,586.887756 321.330444,604.398682 304.412506,622.108582 
	C302.333282,624.285217 300.000305,625.428101 296.756348,625.696045 
	C298.207977,633.213684 298.779236,640.213257 307.166351,643.834351 
	C314.235413,646.886292 315.709320,651.514404 314.567719,658.484497 
	C313.984314,662.046204 312.017700,664.009766 308.681702,664.157410 
	C303.037659,664.407288 297.376312,664.656921 291.726471,663.827087 
	C284.422546,662.754272 278.788940,659.281189 274.200836,653.423523 
	C267.416199,644.761536 260.353455,636.316406 255.040024,626.627930 
	C251.753586,620.635437 252.085449,619.265259 256.877655,614.398132 
	C263.080109,608.098694 269.417328,602.282959 274.828156,594.848511 
	C290.779907,572.930969 308.767395,552.488098 326.130463,531.611450 
	C328.913544,528.265137 330.653870,524.730408 331.425629,520.554077 
	C333.571442,508.941681 335.641418,497.312836 338.014923,485.746643 
	C338.554626,483.116577 337.985535,481.318176 336.416382,479.384430 
	C325.365662,465.765808 317.440765,450.841003 317.142548,432.759979 
	C317.129852,431.991058 316.877838,430.809235 316.357147,430.530945 
	C311.812286,428.101410 312.732361,423.823761 312.644226,419.927368 
	C312.395203,408.920929 313.761688,397.985535 314.179108,387.020325 
	C314.538483,377.579498 313.420746,368.086823 313.073364,358.612762 
	C312.917267,354.355042 313.046997,350.086853 313.046997,344.469788 
	C304.562164,355.998718 300.473480,367.415253 299.265289,380.112305 
	C297.894989,394.512512 296.419281,408.944000 293.930450,423.176727 
	C292.893646,429.105988 292.650146,433.876434 295.783508,439.279572 
	C298.335236,443.679810 298.346161,449.235504 298.582397,454.381348 
	C298.790070,458.906311 295.275665,459.713593 289.735229,456.335022 
	C290.280853,459.463806 290.833160,462.387726 291.291229,465.326355 
	C291.741669,468.216309 293.269562,471.641663 289.990784,473.544861 
	C286.870148,475.356262 282.937225,475.015503 279.902374,473.462250 
	C274.752899,470.826752 269.736603,467.628082 265.773987,463.379791 
	C260.756989,458.001190 261.518158,451.036011 261.957794,444.375793 
	C262.120941,441.904114 262.886658,439.477142 263.285156,437.014862 
	C263.805908,433.797394 264.320953,430.892059 262.420288,427.509613 
	C260.509918,424.109924 261.700653,419.667114 261.614868,415.687744 
	C261.205048,396.684326 262.375580,377.762451 264.424316,358.866394 
	C265.972198,344.589905 272.658630,332.240845 278.578064,319.630615 
	C284.524353,306.963074 291.509949,294.826813 298.936096,282.950653 
	C301.742706,278.462250 305.238617,274.866791 309.925812,272.333801 
	C317.401520,268.293854 324.750671,263.988190 332.644043,260.810791 
	C335.730713,259.568298 336.864624,257.766846 337.054169,254.478317 
	C337.362854,249.122284 336.979004,243.545822 344.932953,242.204132 
	C348.451782,241.610565 347.360382,236.332397 346.015869,233.963684 
	C343.060577,228.757141 341.930084,222.637802 335.183807,219.347092 
	C327.427338,215.563599 323.507721,199.567963 326.976593,191.688690 
	C328.222870,188.857819 327.768433,186.119980 327.517212,183.349945 
	C325.183899,157.622177 339.619873,139.918884 365.383545,137.007629 
	C389.551666,134.276657 410.335815,150.602325 413.398621,174.748291 
	C413.712463,177.222458 414.060303,179.716187 414.057892,182.200516 
	C414.054932,185.269913 414.316437,187.750168 418.160522,188.360901 
	C420.403503,188.717255 421.735352,190.684326 421.014160,192.868286 
	C419.513519,197.412506 419.552307,202.387482 416.661316,206.573776 
	C414.314789,209.971680 414.979248,214.275024 414.339935,218.159531 
	C412.514679,229.249969 405.960785,244.139999 398.842529,252.184784 
	C400.883362,255.153534 402.261566,258.400177 400.205566,262.112854 
	C399.411560,263.546661 400.220520,264.640015 401.517181,265.414734 
	C402.947388,266.269226 404.334503,267.198029 405.783295,268.018799 
	C417.817596,274.836426 425.662354,284.651978 429.266510,298.259216 
	C433.355164,313.695496 438.469086,328.857635 442.877167,344.213562 
	C444.088867,348.434692 446.244263,351.620636 449.510071,354.447876 
	C461.977478,365.241119 474.641205,375.843506 486.543274,387.236328 
	C491.355591,391.842712 496.096252,395.252228 502.556427,396.974792 
	C508.323639,398.512512 510.971161,404.352600 514.680603,408.467499 
	C519.307739,413.600372 524.613525,417.801392 529.972595,421.968719 
	C559.833252,445.189148 590.053284,467.920044 621.747620,488.621643 
	C648.681030,506.213531 676.275024,522.702148 704.385498,538.334534 
	C705.111145,538.738098 705.941589,539.495178 706.604614,539.383484 
	C711.889404,538.493591 715.706726,541.454773 719.521301,544.647522 
	C721.168701,542.243469 721.866516,540.147217 721.422485,537.733948 
	C721.392456,537.571167 721.323486,537.364563 721.390076,537.242310 
	C724.591431,531.367859 724.625488,523.675476 731.154419,519.729431 
	C734.925598,517.450195 736.635498,513.346558 739.568542,510.321533 
	C745.170471,504.544006 751.715576,500.299286 758.813110,498.038422 
	C763.499695,496.545532 769.048157,495.798126 774.528137,495.695740 
	C780.590820,495.582428 785.607605,498.143188 791.203369,498.856110 
	C796.097107,499.479614 799.276489,503.782166 802.157593,506.878601 
	C806.526550,511.574127 811.376770,516.099365 814.070984,522.564697 
	C816.009155,527.215698 819.825562,531.162476 820.873901,536.441162 
	C821.063965,537.398071 822.049194,538.313293 821.974426,539.188538 
	C821.297241,547.115356 822.310303,555.527893 816.013611,561.966309 
	C815.099976,562.900635 813.879272,564.299927 812.864807,564.247314 
	C805.799316,563.880615 802.772339,569.828186 798.266296,573.352173 
	C795.098267,575.829834 791.755371,577.769165 787.782593,577.116638 
	C783.165527,576.358398 782.368713,578.902588 782.070740,582.418762 
	C781.519348,588.925537 779.736511,595.035278 775.853638,600.803711 
M675.797241,602.271790 
	C677.949402,599.652893 675.081421,596.906982 675.753967,594.138794 
	C681.075317,596.694031 681.295227,599.273193 676.632874,608.835999 
	C688.950378,608.667908 699.393494,614.571228 711.655090,617.370544 
	C708.004700,606.298828 705.927795,595.634216 705.625793,584.611572 
	C705.318970,573.412964 707.198364,562.542419 710.289734,550.847107 
	C705.576050,552.223633 701.719727,553.042908 698.169556,550.524231 
	C697.908325,550.338928 697.142944,550.597717 696.776062,550.870605 
	C694.173218,552.806641 691.705994,552.886108 689.065491,550.817322 
	C688.421509,550.312744 686.837708,550.162354 686.230835,550.601685 
	C683.542358,552.547668 680.654724,551.474426 677.905579,551.822937 
	C673.704590,552.355347 669.696533,554.207336 665.248291,553.126953 
	C664.727966,553.000610 663.774109,553.889099 663.294067,554.515991 
	C662.020142,556.179504 660.411560,556.571716 658.438660,556.322083 
	C657.102417,556.152954 655.675293,556.225159 654.742065,557.375122 
	C651.805969,560.993042 645.054138,560.911072 645.014771,567.419189 
	C645.012085,567.868652 643.721985,568.317505 643.022888,568.754272 
	C641.416504,569.757935 635.115234,581.634888 635.528015,583.379089 
	C636.637573,588.067078 631.251953,592.995667 636.070740,597.546265 
	C636.215576,597.683105 635.871460,598.510803 635.590759,598.896667 
	C633.991699,601.095032 634.990723,603.079468 635.482910,605.423340 
	C636.158142,608.638428 636.554993,612.877441 633.379700,614.883240 
	C629.745728,617.178650 628.002808,622.203125 622.766846,622.222900 
	C622.104431,622.225342 620.964111,623.538086 620.868408,624.341797 
	C620.370728,628.521912 614.940491,631.135132 617.149780,636.169006 
	C617.327393,636.573669 616.824341,637.457520 616.411072,637.913147 
	C612.105164,642.660828 611.466370,647.891724 613.150024,654.053650 
	C614.985962,660.773132 618.778076,663.849304 625.666931,662.838196 
	C627.378662,662.587036 629.033630,662.238098 629.636414,660.354919 
	C630.208496,658.567810 629.485352,657.121887 628.162903,655.890686 
	C627.114502,654.914551 624.916565,653.536743 626.185120,652.447876 
	C629.142517,649.909424 629.035400,646.005066 630.429993,643.034302 
	C632.962097,637.640564 634.586914,633.827087 641.461853,635.608948 
	C643.370789,636.103760 644.199890,632.518921 646.376343,632.648560 
	C651.820618,632.972595 653.749878,625.730774 659.465393,626.701172 
	C659.742737,626.748291 660.337402,625.732361 660.562622,625.128723 
	C661.226929,623.348267 662.596069,622.645813 664.325623,622.258057 
	C666.010315,621.880371 667.562805,621.129700 667.935364,619.231995 
	C668.518738,616.260437 669.233948,613.495544 672.204041,611.828064 
	C673.181580,611.279297 673.517700,609.852173 673.182800,608.650574 
	C672.479248,606.126343 674.057312,604.573975 675.797241,602.271790 
M812.739441,559.601868 
	C813.701721,558.255249 814.639648,556.890320 815.631531,555.565918 
	C817.494019,553.079163 814.784241,549.518494 816.262390,547.974426 
	C822.528198,541.429565 815.373352,536.189087 814.232483,530.919373 
	C813.467468,527.385559 809.704529,523.289917 807.759888,519.136047 
	C807.293884,518.140625 806.395020,517.071045 805.425537,516.634399 
	C800.230347,514.294556 798.456421,508.607635 793.911316,505.358368 
	C789.420044,502.147614 783.758179,503.088348 779.683716,499.646606 
	C779.500244,499.491638 778.779114,499.941315 778.324158,500.144592 
	C774.120483,502.022827 769.095886,498.043884 765.108826,501.983002 
	C764.821716,502.266693 763.589966,501.535645 762.779236,501.360504 
	C761.226807,501.025085 759.700134,501.177734 758.674011,502.490479 
	C757.341553,504.195099 754.866699,504.199554 753.702637,505.308350 
	C750.661926,508.204773 744.935669,508.445038 744.593079,514.218445 
	C741.417725,514.469421 738.823853,515.609436 738.072815,519.147644 
	C737.719482,520.811890 736.361816,521.600342 735.014709,522.218872 
	C731.912048,523.643494 730.915710,525.831299 729.954102,529.281128 
	C728.716492,533.720703 725.903564,537.450012 725.477844,542.654968 
	C725.202576,546.019897 723.997375,548.776001 726.556946,551.572876 
	C727.617798,552.732056 727.985718,554.108948 728.131775,555.666931 
	C728.381042,558.324768 735.800598,566.895874 738.221863,567.507812 
	C739.593262,567.854309 740.812195,567.458862 742.050537,566.833008 
	C745.807983,564.933899 752.673218,554.254944 751.264526,550.501526 
	C749.247864,545.127991 751.926514,539.535400 749.223816,534.196167 
	C747.848206,531.478516 749.329773,528.045715 753.468323,526.917542 
	C751.016907,531.206177 753.387573,534.786316 754.119690,538.608032 
	C754.998718,543.197083 755.473511,548.498657 754.505798,552.533691 
	C753.195679,557.996216 753.637085,564.615356 748.499634,568.680115 
	C754.968689,577.036255 773.925232,582.551025 778.599609,577.305176 
	C776.174072,576.203125 774.250244,573.871704 771.595032,573.962158 
	C766.188354,574.146423 762.527161,569.291687 757.078857,569.460510 
	C755.386902,569.512939 753.785217,567.252563 753.155212,565.274780 
	C752.663269,563.730652 754.192749,561.928345 754.979431,562.979675 
	C757.629089,566.520691 762.117920,565.237183 764.825745,567.287842 
	C769.045288,570.483459 774.258850,570.801941 778.740112,572.194214 
	C786.286560,574.538696 794.577087,573.407837 800.348938,566.104126 
	C801.973450,564.048401 803.812683,562.125610 805.670715,560.229126 
	C809.804260,556.010193 810.429749,545.267212 806.239868,541.416382 
	C803.108032,538.537964 803.168518,536.093811 804.140320,532.745850 
	C804.445923,531.692871 804.068909,530.459656 804.139954,529.317383 
	C804.351624,525.916565 802.630371,522.928650 801.244751,518.544800 
	C805.166504,521.021729 805.964539,523.549805 806.613159,526.609558 
	C807.455505,530.582947 806.454712,534.736267 808.852905,538.630005 
	C812.359192,544.322998 814.944214,550.489502 811.563965,557.395935 
	C811.320862,557.892639 809.144226,559.925232 812.739441,559.601868 
M756.176208,601.720093 
	C755.990662,600.582642 756.291077,599.574524 757.565430,599.595886 
	C760.814026,599.650330 760.808777,602.735535 762.078186,605.218933 
	C761.382751,593.995300 752.239380,583.390564 742.002197,581.417725 
	C733.363281,579.752869 726.096436,582.756653 723.049011,589.749817 
	C719.060608,598.902161 720.562195,607.963684 724.446350,616.768982 
	C725.093567,618.236206 725.953918,620.287231 728.435913,618.985352 
	C723.485474,605.674194 723.512756,601.908630 728.740295,600.320801 
	C729.183167,603.247986 730.155090,606.187378 729.941895,609.038086 
	C729.575500,613.936218 732.719971,617.503845 734.997192,620.672974 
	C738.455566,625.486023 745.529358,626.228088 749.908447,630.531372 
	C750.112122,630.731628 750.533325,630.754028 750.859497,630.779480 
	C756.799683,631.243896 762.682678,631.737976 768.418701,633.753052 
	C772.586731,635.217346 776.166565,636.611511 777.631775,641.410095 
	C778.376221,643.847961 780.233459,646.029053 781.885437,648.087097 
	C784.236633,651.016418 787.440674,651.872314 790.817322,650.168945 
	C794.370178,648.376770 794.113281,645.078247 793.182556,641.884399 
	C791.911743,637.523132 790.360291,633.253174 788.741699,629.014709 
	C786.972168,624.381104 783.607300,621.331116 780.499390,619.046875 
	C775.469971,615.350403 769.010620,613.328674 763.144043,611.067810 
	C758.192383,609.159546 756.645264,606.909851 756.176208,601.720093 
M753.564941,578.062622 
	C751.017456,576.204834 748.062317,574.931641 745.857788,572.572571 
	C744.909058,571.557312 743.675781,571.280518 742.229126,571.311707 
	C733.849182,571.492432 725.365479,565.042603 724.047729,556.994507 
	C723.444702,553.311768 721.588013,552.395691 718.394226,552.153992 
	C715.246826,551.915894 713.982727,553.424683 713.228027,556.246948 
	C707.868103,576.291199 708.846985,596.078979 715.392151,615.674988 
	C716.145203,617.929565 717.499512,619.300415 720.484863,618.874939 
	C717.821228,612.051331 716.389343,605.276428 716.768372,598.217285 
	C717.610168,582.536987 729.591736,573.511780 744.085876,577.776672 
	C748.921082,579.199402 753.175720,581.771606 756.872009,585.313599 
	C762.563843,590.767822 765.857788,597.415588 767.041992,606.684143 
	C771.939270,599.003662 776.019775,592.681274 777.378052,584.709106 
	C769.178589,583.537720 761.201355,582.713623 753.564941,578.062622 
M669.836914,644.872864 
	C670.026245,648.356445 673.562988,649.341797 675.032227,651.817322 
	C679.184204,658.812683 685.165222,661.683594 692.809143,660.063477 
	C694.924561,659.615173 697.468201,659.395752 697.489014,656.533203 
	C697.507446,653.993347 695.522705,652.852600 693.249084,652.335938 
	C691.458862,651.929138 689.505310,651.758362 688.868591,649.607117 
	C687.477234,644.905762 684.292542,641.297485 681.409546,637.551453 
	C679.690796,635.318176 679.922485,633.872498 682.427856,633.003296 
	C690.128296,630.331848 689.384277,622.595703 692.938782,617.280823 
	C690.215027,615.803101 687.857117,615.679810 685.780640,614.513916 
	C680.169434,611.363220 674.319519,613.703247 672.341858,619.870239 
	C671.335632,623.007690 669.586853,625.056763 666.567383,626.223206 
	C663.170715,627.535339 661.838379,630.995178 662.941956,633.503357 
	C664.593140,637.256226 665.105835,642.013916 669.836914,644.872864 
M618.312805,561.170776 
	C618.558044,562.812805 619.575867,564.439636 621.028564,564.328735 
	C625.376038,563.996948 628.449890,567.200500 632.254150,568.327332 
	C637.706177,569.942139 639.513062,566.149902 642.220337,564.166016 
	C644.430847,562.546082 642.499451,559.089355 639.361511,558.871277 
	C635.922913,558.632324 632.146973,557.051392 630.630676,555.056702 
	C625.466675,548.263306 621.450500,540.621033 622.571045,531.481018 
	C622.863708,529.094299 622.161987,527.043457 620.034729,525.966858 
	C617.571899,524.720520 616.534363,526.799072 615.379639,528.454651 
	C614.728271,529.388550 613.982239,530.300476 613.118958,531.034180 
	C610.509155,533.252136 608.218079,544.215759 609.851379,547.090515 
	C610.013306,547.375488 610.231018,547.649414 610.480042,547.861023 
	C612.149597,549.279663 612.707825,551.025391 612.390137,553.205811 
	C612.091858,555.252930 613.078552,556.773743 614.958313,557.591553 
	C616.367188,558.204407 617.714539,558.803589 618.312805,561.170776 
M725.048828,624.233032 
	C724.457031,624.501160 723.531250,624.614319 723.324097,625.060852 
	C720.657471,630.808777 719.470337,637.136719 718.066345,643.158752 
	C717.443054,645.832031 715.586365,649.089478 716.664856,652.491821 
	C719.060608,660.050537 721.565796,662.139282 729.664734,661.870728 
	C732.567444,661.774414 737.202148,662.778259 737.192749,658.456543 
	C737.184509,654.672180 732.880737,655.326538 729.953979,655.194153 
	C728.506104,655.128662 726.610291,655.436768 726.543396,653.302185 
	C726.481995,651.344971 728.255676,650.958435 729.751404,650.934387 
	C732.947998,650.882751 734.824707,649.714539 734.659180,646.213013 
	C734.607971,645.129211 735.784058,644.593750 736.174072,643.762085 
	C737.897156,640.087708 738.266907,635.821533 741.291443,632.685486 
	C741.977295,631.974365 741.379639,630.845459 740.469299,630.136353 
	C736.156006,626.776978 732.068176,622.904175 725.048828,624.233032 
z"/>
  <path d="
M580.724731,632.175659 
	C584.677307,633.491211 588.157166,634.820862 588.015259,639.495605 
	C585.442505,640.622498 584.491333,638.922424 583.289612,637.926514 
	C581.488647,636.434021 579.488892,635.622253 577.364624,636.881409 
	C575.221863,638.151489 574.161377,640.201355 574.578064,642.785828 
	C574.834534,644.376465 575.738159,646.515381 573.189636,646.618774 
	C570.920959,646.710815 570.515991,644.483887 570.380066,642.617004 
	C569.932861,636.474731 572.975769,633.295044 580.724731,632.175659 
z"/><path d="
M596.845581,528.827087 
	C599.390930,527.492737 600.661011,528.453247 599.808716,530.633240 
	C597.833618,535.685303 596.473633,540.684814 597.869568,546.130188 
	C598.139465,547.183105 597.570679,548.216736 596.333069,548.196594 
	C594.652771,548.169373 594.148682,546.735352 593.977173,545.435120 
	C593.227600,539.751343 593.309265,534.165283 596.845581,528.827087 
z"/><path d="
M596.509949,662.338013 
	C591.056213,661.783020 587.868347,657.604736 583.744446,655.032288 
	C582.147156,654.035767 582.721619,652.271912 584.796875,651.914795 
	C587.711731,651.413086 596.182434,658.703491 596.509949,662.338013 
z"/><path d="
M806.373901,635.347290 
	C806.209473,637.010803 806.122681,638.327209 805.790955,639.578735 
	C805.583984,640.359924 804.984680,641.031616 803.996216,640.973145 
	C802.993408,640.913940 802.364563,640.128662 802.476868,639.358582 
	C803.007690,635.717773 801.723389,632.578247 800.127930,629.465759 
	C799.661255,628.555420 799.566711,627.468872 800.526428,626.790039 
	C801.816528,625.877502 802.682068,626.829163 803.390564,627.757202 
	C805.017944,629.889038 805.961426,632.321838 806.373901,635.347290 
z"/><path d="
M598.475708,654.628296 
	C598.169739,655.874207 597.511353,656.460144 596.605896,656.210754 
	C594.847961,655.726624 590.259888,646.753540 590.921997,645.120178 
	C591.139465,644.583862 591.709473,643.979309 592.240173,643.824890 
	C593.353943,643.501038 594.184998,644.245361 594.657288,645.154419 
	C596.184814,648.094482 598.135559,650.866699 598.475708,654.628296 
z"/><path d="
M585.746338,539.625183 
	C585.664551,537.071533 585.560486,534.922302 586.603516,532.946045 
	C587.158203,531.895142 587.840881,530.830505 589.217773,531.275574 
	C590.520691,531.696716 590.905945,532.873413 590.422729,534.078430 
	C589.677673,535.936584 589.601624,537.909241 589.154297,539.801086 
	C588.482117,542.644226 587.107544,542.382935 585.746338,539.625183 
z"/><path d="
M812.506897,632.166992 
	C812.398315,633.774536 812.070374,634.889709 810.558350,634.950745 
	C809.262512,635.002991 808.766479,634.037231 808.789062,633.005920 
	C808.841614,630.613525 806.374634,628.459412 808.185303,625.710571 
	C812.034668,626.074524 812.016418,629.118164 812.506897,632.166992 
z"/><path d="
M783.042236,557.633545 
	C785.736145,557.506653 787.559631,556.660034 788.298401,554.315125 
	C786.638855,550.727905 780.585205,548.653748 784.308960,543.505493 
	C786.567261,540.383240 794.544617,539.651917 796.707642,542.272339 
	C800.694824,547.102600 795.597107,550.262451 793.871216,554.340271 
	C795.856079,556.263123 797.734192,556.183289 799.676208,554.121216 
	C800.675293,553.060425 801.813293,551.400940 803.344604,552.859985 
	C805.070618,554.504578 803.386230,556.219971 802.229675,557.013489 
	C799.124207,559.144226 797.463623,562.028931 795.867249,565.355713 
	C793.713928,569.842957 788.973633,570.515747 785.592407,566.776184 
	C782.780273,563.666016 780.066833,560.783447 776.097656,559.172302 
	C774.576965,558.554932 772.968506,557.095337 774.219116,555.274780 
	C775.338440,553.645386 776.897583,554.887451 778.127930,555.726135 
	C779.517822,556.673523 780.964355,557.452820 783.042236,557.633545 
M788.175842,560.561401 
	C786.799133,562.588684 788.137024,563.611511 789.722473,564.329468 
	C790.972229,564.895508 791.984497,564.153564 792.567810,563.067261 
	C793.184448,561.918762 793.851868,560.572205 792.796021,559.404663 
	C791.146973,557.581116 789.904053,559.122803 788.175842,560.561401 
z"/><path d="
M797.863220,536.395264 
	C791.751282,533.616455 785.868408,535.068176 780.012573,535.958862 
	C778.929871,536.123596 777.931091,537.117432 776.348816,535.799011 
	C780.472351,531.316162 785.965576,532.597961 791.018127,531.942505 
	C791.258728,529.608582 790.778503,526.811584 793.843323,525.804199 
	C795.584717,525.231873 797.053223,525.701477 798.238647,527.218872 
	C800.030090,529.512024 798.404602,531.218262 797.348572,532.977783 
	C797.958008,534.986572 801.027100,534.007263 801.245667,536.375916 
	C800.269653,537.794434 799.208374,536.616638 797.863220,536.395264 
z"/><path d="
M758.192993,559.871826 
	C756.774841,554.964539 758.585205,550.594360 759.384338,546.320496 
	C760.106995,542.456055 763.870056,540.680969 768.352112,540.539124 
	C759.473877,545.723206 760.657227,554.124756 761.006470,562.145447 
	C759.215332,562.452820 758.868835,561.222290 758.192993,559.871826 
z"/><path d="
M767.310791,528.805542 
	C770.454163,528.487793 772.133362,529.660278 772.449280,532.469666 
	C772.694336,534.648010 771.358826,535.828064 769.532227,536.484314 
	C767.488586,537.218628 765.893372,536.211304 764.951599,534.562012 
	C763.537903,532.086243 764.536011,530.179016 767.310791,528.805542 
z"/>
</g>
</svg>